<svg xmlns="http://www.w3.org/2000/svg" width="20" height="25" viewBox="0 0 20 25">
    <g fill="#FFF" fill-rule="evenodd">
        <path d="M9.985 1.663C5.36 1.663 1.6 5.217 1.6 9.585c0 2.415 1.355 5.807 3.625 9.076 2.294 3.304 4.262 4.733 4.76 4.733.497 0 2.466-1.429 4.76-4.733 2.27-3.268 3.624-6.661 3.624-9.076 0-4.368-3.761-7.922-8.384-7.922m0 23.243c-1.725 0-4.363-2.917-6.098-5.416C2.718 17.807 0 13.473 0 9.585 0 4.383 4.48.151 9.985.151c5.505 0 9.984 4.232 9.984 9.434 0 3.888-2.718 8.222-3.886 9.905-1.735 2.499-4.373 5.416-6.098 5.416"/>
        <path d="M9.982 6.395c-1.814 0-3.29 1.395-3.29 3.11 0 1.713 1.476 3.108 3.29 3.108s3.29-1.395 3.29-3.109-1.476-3.109-3.29-3.109m0 7.73c-2.696 0-4.89-2.073-4.89-4.62 0-2.549 2.194-4.621 4.89-4.621 2.697 0 4.89 2.072 4.89 4.62s-2.193 4.62-4.89 4.62"/>
    </g>
</svg>