<svg xmlns="http://www.w3.org/2000/svg" width="22" height="27" viewBox="0 0 22 27">
    <g fill="#FFF" fill-rule="evenodd" stroke="#FFF" stroke-width=".625">
        <path d="M10.92 13.5h.154c1.405-.024 2.542-.519 3.381-1.465 1.846-2.085 1.54-5.66 1.506-6-.12-2.561-1.329-3.786-2.326-4.358-.743-.427-1.611-.658-2.58-.677h-.081c-.533 0-1.578.087-2.58.658-1.007.572-2.235 1.797-2.355 4.377-.033.34-.34 3.915 1.506 6 .834.946 1.97 1.441 3.376 1.465zm-3.6-7.345c0-.015.004-.03.004-.039.159-3.444 2.6-3.814 3.645-3.814h.057c1.295.029 3.496.557 3.645 3.814 0 .015 0 .03.005.039.004.033.34 3.3-1.185 5.02-.604.682-1.41 1.018-2.47 1.028h-.047c-1.055-.01-1.866-.346-2.465-1.028-1.52-1.71-1.194-4.991-1.19-5.02zM20.999 21.005v-.015c0-.04-.005-.08-.005-.126-.03-.996-.093-3.324-2.206-4.069l-.049-.015c-2.195-.579-4.021-1.886-4.04-1.901a.643.643 0 0 0-.916.165.693.693 0 0 0 .16.946c.083.06 2.021 1.454 4.446 2.098 1.134.417 1.26 1.67 1.295 2.817 0 .045 0 .085.005.125.005.453-.025 1.152-.102 1.555-.79.462-3.881 2.062-8.585 2.062-4.684 0-7.795-1.605-8.589-2.067-.078-.403-.112-1.102-.102-1.555 0-.04.005-.08.005-.126.034-1.146.16-2.399 1.295-2.816 2.425-.644 4.363-2.042 4.446-2.098a.693.693 0 0 0 .16-.946.644.644 0 0 0-.915-.166c-.02.016-1.836 1.323-4.041 1.902l-.05.015c-2.112.75-2.176 3.078-2.205 4.07 0 .045 0 .085-.005.125V21c-.005.262-.01 1.605.249 2.279a.64.64 0 0 0 .253.316C1.649 23.696 5.15 26 11.007 26c5.858 0 9.359-2.309 9.505-2.405a.668.668 0 0 0 .253-.316c.243-.67.238-2.012.234-2.274z"/>
    </g>
</svg>